<?xml version="1.0" standalone="no"?>
<!DOCTYPE svg PUBLIC "-//W3C//DTD SVG 20010904//EN"
 "http://www.w3.org/TR/2001/REC-SVG-20010904/DTD/svg10.dtd">
<svg version="1.0" xmlns="http://www.w3.org/2000/svg"
 width="626.000000pt" height="626.000000pt" viewBox="0 0 626.000000 626.000000"
 preserveAspectRatio="xMidYMid meet">
<metadata>
Created by potrace 1.11, written by Peter Selinger 2001-2013
</metadata>
<g transform="translate(0.000000,626.000000) scale(0.100000,-0.100000)"
fill="#000000" stroke="none">
<path d="M3110 4692 c0 -57 -2 -61 -90 -185 l-90 -127 0 -190 0 -190 -60 0
-60 0 0 -135 0 -135 60 0 60 0 0 -311 0 -311 -65 61 c-122 113 -310 201 -473
219 l-67 7 -3 40 c-6 63 17 182 52 275 72 195 232 365 423 451 62 29 63 30 63
69 0 22 -3 40 -6 40 -17 0 -179 -83 -230 -118 -168 -113 -300 -302 -355 -507
-30 -109 -32 -327 -5 -429 72 -271 238 -475 481 -592 138 -67 224 -86 385 -86
161 0 247 19 385 86 595 287 680 1089 160 1502 -50 40 -243 143 -267 144 -5 0
-8 -18 -8 -40 0 -39 1 -40 64 -69 285 -129 475 -421 476 -728 0 -46 -2 -83 -5
-83 -3 0 -44 12 -92 27 -79 24 -104 26 -243 27 -114 0 -170 -4 -212 -16 l-58
-16 0 179 0 179 60 0 60 0 0 135 0 135 -60 0 -60 0 0 191 0 190 -85 120 -85
119 0 65 c0 63 -1 65 -25 65 -24 0 -25 -3 -25 -58z m82 -230 l57 -77 -116 -3
c-64 -1 -118 -1 -120 2 -5 4 109 156 117 156 3 -1 31 -35 62 -78z m58 -312 l0
-150 -120 0 -120 0 0 150 0 150 120 0 120 0 0 -150z m120 -285 l0 -55 -240 0
-240 0 0 55 0 55 240 0 240 0 0 -55z m-120 -327 l0 -193 -64 -33 c-35 -18 -88
-51 -117 -73 -29 -21 -54 -39 -56 -39 -2 0 -3 119 -3 265 l0 265 120 0 120 0
0 -192z m588 -242 c62 -20 82 -31 82 -45 0 -16 -29 -122 -35 -129 -1 -1 -38 9
-81 24 -254 86 -542 4 -717 -204 -56 -66 -112 -175 -129 -249 -9 -37 -18 -53
-29 -53 -20 0 -111 30 -123 41 -14 13 41 169 89 251 116 197 317 340 546 388
24 5 105 8 179 6 113 -3 148 -8 218 -30z m-1368 -2 c100 -22 256 -104 334
-175 36 -34 66 -64 66 -68 0 -5 -16 -36 -36 -69 l-37 -61 -71 65 c-82 75 -209
144 -303 164 -60 12 -63 15 -73 49 -6 20 -13 55 -17 78 l-6 42 39 -5 c22 -4
68 -12 104 -20z m1262 -209 c31 -8 71 -20 88 -27 l31 -13 -35 -56 -35 -56 -68
18 c-37 10 -87 18 -109 18 -117 2 -239 -48 -322 -131 -53 -52 -122 -172 -122
-211 0 -18 -5 -19 -65 -15 -35 2 -67 6 -70 9 -9 10 26 112 62 181 65 125 216
243 359 283 67 18 217 18 286 0z m-1213 -51 c74 -34 153 -94 200 -154 l39 -49
-16 -55 c-15 -55 -15 -55 -41 -41 -89 47 -220 184 -276 287 l-28 51 33 -7 c19
-3 59 -18 89 -32z m1166 -155 l40 -11 -55 -50 c-101 -91 -262 -171 -394 -194
-37 -6 -38 -6 -31 17 22 72 102 167 170 202 90 46 187 59 270 36z"/>
<path d="M3090 4165 l0 -65 40 0 40 0 0 65 0 65 -40 0 -40 0 0 -65z"/>
<path d="M2560 3855 l0 -35 80 0 80 0 0 35 0 35 -80 0 -80 0 0 -35z"/>
<path d="M3540 3855 l0 -35 75 0 75 0 0 35 0 35 -75 0 -75 0 0 -35z"/>
<path d="M2442 3613 l3 -38 190 0 190 0 3 38 3 37 -196 0 -196 0 3 -37z"/>
<path d="M3440 3610 l0 -40 178 2 177 3 3 38 3 37 -180 0 -181 0 0 -40z"/>
<path d="M2763 3412 l-53 -3 0 -35 0 -34 70 0 70 0 0 34 c0 39 -8 43 -87 38z"/>
<path d="M1867 2180 c-111 -34 -170 -181 -118 -295 48 -108 182 -145 295 -82
l41 22 3 83 3 83 -82 -3 c-55 -2 -84 -7 -87 -15 -3 -10 15 -13 67 -13 l71 0 0
-61 0 -60 -46 -21 c-58 -25 -141 -21 -182 9 -69 51 -92 156 -51 240 41 85 132
115 224 74 54 -24 84 -14 42 13 -50 34 -121 44 -180 26z"/>
<path d="M3558 2176 c-78 -28 -117 -70 -139 -151 -14 -52 2 -126 38 -173 30
-40 113 -82 163 -82 88 0 167 49 201 125 76 167 -89 343 -263 281z m144 -97
c32 -24 52 -79 44 -124 -28 -147 -236 -126 -236 24 0 106 105 161 192 100z"/>
<path d="M4414 2171 c-75 -34 -95 -133 -38 -186 14 -13 54 -31 90 -41 89 -24
111 -46 78 -78 -22 -23 -63 -20 -117 7 l-46 24 -28 -29 -28 -29 25 -20 c29
-22 111 -49 152 -49 97 0 166 85 137 168 -13 38 -38 55 -122 82 -70 23 -93 40
-84 65 11 26 56 29 108 7 l49 -20 21 29 c27 38 15 53 -54 74 -66 19 -93 19
-143 -4z"/>
<path d="M1230 1980 l0 -200 136 0 c104 0 135 3 132 13 -3 8 -39 13 -121 15
l-117 3 0 184 c0 158 -2 185 -15 185 -13 0 -15 -29 -15 -200z"/>
<path d="M1590 1980 c0 -171 2 -200 15 -200 13 0 15 29 15 200 0 171 -2 200
-15 200 -13 0 -15 -29 -15 -200z"/>
<path d="M2200 1980 c0 -171 2 -200 15 -200 12 0 15 17 15 95 l0 95 125 0 125
0 0 -95 c0 -78 3 -95 15 -95 13 0 15 29 15 200 0 171 -2 200 -15 200 -12 0
-15 -17 -15 -90 l0 -90 -125 0 -125 0 0 90 c0 73 -3 90 -15 90 -13 0 -15 -29
-15 -200z"/>
<path d="M2602 2168 c3 -8 29 -14 71 -16 l67 -3 0 -184 c0 -180 1 -185 20
-185 20 0 21 5 20 173 0 94 -1 178 0 185 0 8 20 12 65 12 51 0 65 3 65 15 0
13 -24 15 -156 15 -120 0 -155 -3 -152 -12z"/>
<path d="M2990 1980 l0 -200 45 0 45 0 0 80 0 80 85 0 85 0 0 -80 0 -80 40 0
40 0 0 200 0 200 -40 0 -39 0 -3 -77 -3 -78 -82 -3 -83 -3 0 81 0 80 -45 0
-45 0 0 -200z"/>
<path d="M3911 2033 c5 -167 16 -200 79 -238 47 -27 152 -28 197 -1 61 37 73
76 73 240 l0 146 -40 0 -40 0 0 -120 c0 -120 -12 -178 -40 -195 -26 -16 -91
-8 -113 14 -20 20 -22 34 -25 161 l-4 140 -45 0 -45 0 3 -147z"/>
<path d="M4720 1980 l0 -200 155 0 155 0 0 40 0 40 -110 0 -110 0 0 40 0 40
95 0 95 0 0 40 0 40 -95 0 -95 0 0 40 0 40 110 0 110 0 0 40 0 40 -155 0 -155
0 0 -200z"/>
<path d="M1909 1584 c12 -19 21 -44 21 -55 0 -10 5 -19 10 -19 6 0 10 8 10 18
0 9 9 32 20 50 24 39 24 42 6 42 -8 0 -18 -10 -22 -22 l-7 -22 -17 22 c-30 36
-45 26 -21 -14z"/>
<path d="M2072 1608 c-20 -20 -15 -76 8 -88 33 -18 73 -8 89 21 13 24 13 29
-2 53 -13 19 -26 26 -50 26 -18 0 -38 -5 -45 -12z m72 -30 c8 -14 7 -21 -6
-34 -30 -30 -75 9 -48 42 16 18 39 15 54 -8z"/>
<path d="M2250 1571 c0 -41 3 -51 21 -56 11 -4 31 -4 45 -1 21 6 24 12 24 56
0 61 -18 67 -22 8 -2 -35 -7 -43 -23 -43 -16 0 -21 8 -23 43 -4 58 -22 53 -22
-7z"/>
<path d="M2420 1566 c0 -31 5 -56 10 -56 6 0 10 7 10 15 0 8 7 15 15 15 9 0
18 -7 21 -15 4 -8 12 -15 20 -15 16 0 19 16 4 25 -8 5 -7 11 0 20 6 8 10 24 8
37 -2 19 -10 23 -45 26 l-43 3 0 -55z m65 19 c0 -5 -10 -11 -22 -13 -16 -2
-23 2 -23 13 0 11 7 15 23 13 12 -2 22 -7 22 -13z"/>
<path d="M2687 1614 c-17 -18 -6 -46 23 -57 39 -15 39 -31 -1 -23 -22 4 -29 2
-26 -7 2 -6 19 -12 38 -12 27 0 35 4 37 22 2 16 -5 26 -27 38 -37 19 -40 28
-6 23 13 -2 25 2 27 7 3 12 -54 19 -65 9z"/>
<path d="M2830 1565 l0 -55 40 0 c22 0 40 5 40 10 0 6 -11 10 -25 10 -23 0
-25 4 -25 45 0 33 -4 45 -15 45 -12 0 -15 -13 -15 -55z"/>
<path d="M2996 1604 c-21 -20 -20 -58 0 -79 25 -24 75 -16 93 16 13 24 13 29
-2 53 -20 30 -66 35 -91 10z m72 -36 c2 -20 -2 -28 -19 -33 -30 -10 -53 19
-38 47 15 29 53 20 57 -14z"/>
<path d="M3183 1608 c-21 -27 -23 -51 -8 -75 13 -20 23 -24 53 -21 32 3 37 7
40 31 3 23 0 27 -22 27 -29 0 -35 -16 -8 -23 16 -4 16 -4 -1 -12 -12 -5 -24
-2 -35 9 -22 21 -5 51 29 51 39 0 37 20 -2 23 -21 2 -40 -2 -46 -10z"/>
<path d="M3361 1569 c-22 -51 -22 -74 1 -51 7 7 21 12 33 12 12 0 26 -5 33
-12 23 -23 23 0 1 51 -12 28 -27 51 -34 51 -7 0 -22 -23 -34 -51z m43 6 c3 -9
0 -15 -9 -15 -9 0 -12 6 -9 15 4 8 7 15 9 15 2 0 5 -7 9 -15z"/>
<path d="M3520 1565 c0 -42 3 -55 15 -55 10 0 15 10 15 31 l0 31 26 -31 c14
-17 30 -31 35 -31 5 0 9 25 9 55 0 30 -4 55 -10 55 -5 0 -10 -15 -10 -32 l-1
-33 -28 33 c-40 46 -51 42 -51 -23z"/>
<path d="M3790 1565 c0 -42 3 -55 15 -55 8 0 15 9 15 20 0 13 7 20 20 20 13 0
20 -7 20 -20 0 -11 7 -20 15 -20 12 0 15 13 15 55 0 42 -3 55 -15 55 -8 0 -15
-9 -15 -20 0 -13 -7 -20 -20 -20 -13 0 -20 7 -20 20 0 11 -7 20 -15 20 -12 0
-15 -13 -15 -55z"/>
<path d="M3970 1565 l0 -55 40 0 c22 0 40 5 40 10 0 6 -13 10 -30 10 -16 0
-30 5 -30 10 0 6 11 10 25 10 16 0 25 6 25 15 0 9 -9 15 -25 15 -14 0 -25 5
-25 10 0 6 14 10 30 10 17 0 30 5 30 10 0 6 -18 10 -40 10 l-40 0 0 -55z"/>
<path d="M4120 1565 c0 -42 3 -55 15 -55 8 0 15 7 15 15 0 8 4 15 9 15 5 0 14
-7 21 -15 7 -8 19 -15 27 -15 13 0 13 3 3 15 -11 13 -11 20 0 40 18 34 -1 55
-51 55 l-39 0 0 -55z m70 20 c0 -8 -9 -15 -20 -15 -11 0 -20 7 -20 15 0 8 9
15 20 15 11 0 20 -7 20 -15z"/>
<path d="M4290 1565 l0 -55 40 0 c22 0 40 5 40 10 0 6 -11 10 -24 10 -34 0
-42 18 -11 22 33 4 33 22 0 26 -35 5 -31 22 5 22 17 0 30 5 30 10 0 6 -18 10
-40 10 l-40 0 0 -55z"/>
</g>
</svg>
